<?xml version="1.0" encoding="utf-8"?>
<!-- Generator: Adobe Illustrator 28.0.0, SVG Export Plug-In . SVG Version: 6.00 Build 0)  -->
<svg version="1.1" id="Layer_1" xmlns="http://www.w3.org/2000/svg" xmlns:xlink="http://www.w3.org/1999/xlink" x="0px" y="0px"
	 viewBox="0 0 1080 1080" style="enable-background:new 0 0 1080 1080;" xml:space="preserve">
<style type="text/css">
	.st0{fill-rule:evenodd;clip-rule:evenodd;fill:#652D90;}
	.st1{fill-rule:evenodd;clip-rule:evenodd;fill:#71C5EE;}
	.st2{fill:#34215D;}
	.st3{fill:#71C5EE;}
</style>
<g>
	<g>
		<path class="st0" d="M776.8,419.4c0.3-0.9,0.5-1.9,0.7-2.8c0.3-1.2,0.6-2.5,0.9-3.7c0.3-1.1,0.5-2.2,0.8-3.3
			c0.4-1.7,0.7-3.5,1.1-5.2c0.2-1.3,0.4-2.5,0.6-3.7c0.1-0.8,0.3-1.6,0.4-2.5c0.3-2.3,0.6-4.5,0.8-6.8c0.1-0.6,0.1-1.2,0.2-1.8
			c0.1-1.4,0.2-2.7,0.3-4c0-0.6,0.1-1.2,0.1-1.8c0.1-2.3,0.2-4.6,0.2-6.9c0-0.6,0-1.2,0-1.8c0-1.3,0-2.6-0.1-4c0-0.5-0.1-1-0.1-1.5
			c-0.1-2.2-0.3-4.5-0.5-6.7c-0.1-0.7-0.1-1.5-0.2-2.2c-0.1-1.2-0.3-2.4-0.4-3.6c-0.2-1.5-0.5-3.1-0.7-4.6c-0.2-1-0.4-2.1-0.6-3.1
			c-0.2-1-0.4-2-0.6-3c-0.2-1.1-0.5-2.2-0.7-3.2c-0.4-1.5-0.7-3-1.2-4.4c-0.2-0.8-0.4-1.5-0.6-2.2c-0.5-1.7-1-3.3-1.6-5
			c-0.1-0.3-0.2-0.7-0.4-1c-0.6-1.8-1.3-3.5-2-5.3c-0.1-0.3-0.3-0.7-0.4-1c-4.5-11.2-10.3-21.6-17.3-31.1c-2.1-2.8-4.3-5.5-6.6-8.1
			c-0.4-0.5-0.8-0.9-1.2-1.3c-1-1.1-2.1-2.3-3.1-3.4c-1-1.1-2.1-2.2-3.2-3.2c-0.5-0.5-1.1-1.1-1.6-1.6c-1.5-1.5-3.1-2.9-4.7-4.3
			c-0.2-0.2-0.5-0.4-0.7-0.6c0,0,0,0,0,0c-11.7-9.9-24.9-17.8-39.2-23.2c-48.4-18.4-108.2-7.6-156.8,50.2
			c-71.7-85.5-167.8-68-215.5-6.7c61.3-29.1,146.8-10.5,215.5,93.4c66-99.8,142.1-70,146.1-27.5c0,0.2,0,0.4,0,0.6
			c0.1,0.7,0.1,1.3,0.1,2c0,0.1,0,0.2,0,0.4c0,1.2,0,2.3-0.1,3.5c0,0.4-0.1,0.9-0.1,1.3c-0.1,0.5-0.1,1-0.2,1.5
			c-0.1,0.6-0.2,1.1-0.3,1.7c-0.1,0.4-0.1,0.8-0.2,1.2c-0.2,0.9-0.5,1.8-0.7,2.7c-0.1,0.3-0.2,0.7-0.3,1c-0.2,0.7-0.5,1.4-0.7,2.1
			c-0.1,0.3-0.3,0.6-0.4,1c-0.4,1-0.8,1.9-1.3,2.9c-18.2,12.1-41.2,17.9-66.3,13.1c-16.5-3.1-32.3,1.2-18.8,20.1
			c6.3,8.8,20.4,15.4,30.9,19.5c9,3.3,24.7,6,9.1,19.6c-21.8,18.9-45.5,34.4-71.1,48c-18.8,9.9-9.9,32.6,13.8,22.3
			c27.3-11.9,52.9-27.6,75.9-46.5c-31.7,28.3-67.3,50-105.5,68.5c-21.8,10.5-9.8,32.3,10.2,23.1c38.9-17.9,75.4-40.3,108.9-67
			c-27.9,25.3-58.4,47.6-91.1,66.4c-25.5,14.8-12,37.1,11.4,25.3c37.6-19.2,71.3-45.8,102.5-74.2c-23.7,27.8-50.9,52.3-80.9,73
			c-21.6,14.8-3.6,36.8,15.3,23.4c58.3-41.4,108-95.5,137.4-156.2c1.2-2.4,2.3-4.9,3.5-7.3c0.6-1.4,1.3-2.8,1.9-4.2
			c1.6-3.6,3.1-7.3,4.6-11c0.9-2.3,1.7-4.5,2.4-6.7c0.3-0.8,0.5-1.5,0.8-2.3C775.6,423.5,776.3,421.5,776.8,419.4z"/>
		<path class="st1" d="M564.5,596.9c-2.5-1-5-1.9-7.4-2.9c2-11.1-3.5-17.2-15-20.3c-59.5-16-91.7-28.9-96.7-38.8
			c3.3-1.8,8-3.1,14.6-4c7.5-1,15-2.1,22.5-3.5c26.5-4.7,24.4-30.2-8.5-33.8c-17.8-2-34.5-6.2-49.8-12.1c-1.6-0.9-3.1-1.8-4.6-2.7
			c-0.1-0.1-0.2-0.1-0.2-0.2c-1.4-0.9-2.8-1.7-4.1-2.6c0,0,0,0-0.1,0c-24-15.9-38.2-34.5-44.6-52c0,0,0-0.1,0-0.1
			c-0.4-1-0.7-1.9-1-2.9c0-0.1-0.1-0.2-0.1-0.3c-0.3-0.9-0.5-1.8-0.8-2.7c0-0.2-0.1-0.3-0.1-0.5c-0.2-0.8-0.4-1.6-0.6-2.4
			c0-0.2-0.1-0.4-0.1-0.6c-0.2-0.7-0.3-1.5-0.4-2.2c0-0.3-0.1-0.5-0.1-0.8c-0.1-0.7-0.2-1.4-0.3-2.1c0-0.3-0.1-0.6-0.1-0.9
			c-0.1-0.6-0.1-1.3-0.2-1.9c0-0.3-0.1-0.6-0.1-1c0-0.6-0.1-1.2-0.1-1.8c0-0.3,0-0.7,0-1c0-0.6,0-1.2,0-1.8c0-0.3,0-0.6,0-0.9
			c0-0.7,0.1-1.3,0.1-2c0-0.2,0-0.4,0-0.7c0.1-0.8,0.1-1.6,0.2-2.4c0-0.1,0-0.1,0-0.2c3.8-30.7,34.9-47.2,73.9-16.6
			c31.5,24.7,80.9,94,97.8,129.9c10.5-48.8,39.7-127.7,74-164.3c-30,13-58.1,43.7-74,73.3c-28.5-53.2-83.4-105.4-135.6-117.1
			c-31.8-7-58.2-3.5-77.1,8.6c-33,20.9-43.3,67.3-20.5,125.9c36,92.4,120.1,172.1,214.2,218.5c16.8,8.3,29.7,6.1,34.5-0.8
			c0,0,0,0,0,0.1c22.4,10.5,33.6-7.8,19.5-24.6C585.5,620.7,584.9,604.6,564.5,596.9z"/>
	</g>
	<g>
		<path class="st2" d="M47.2,772h-5.9L6.1,715v57H0v-68.3h6l35.2,57v-57h6.1V772z"/>
		<path class="st2" d="M57.3,748.1c0-15.1,10.8-25.8,26-25.8s25.9,10.5,25.9,25.8V772h-6.1V760c-3.4,8.6-11.5,13.2-20.9,13.2
			C68.7,773.3,57.3,763.6,57.3,748.1z M102.7,747.8c0-11.2-7.8-19.4-19.4-19.4s-19.4,8.2-19.4,19.4c0,11.2,7.8,19.4,19.4,19.4
			S102.7,759,102.7,747.8z"/>
		<path class="st2" d="M118.8,754.2v-47.7h6.6v17.1h28.5v6h-28.5v24.6c0,8.8,4.9,13,12.4,13c7.4,0,12.4-4.1,12.4-13v-1.1h6.4v1.1
			c0,12.7-7.6,19.1-18.8,19.1C126.6,773.3,118.8,766.9,118.8,754.2z"/>
		<path class="st2" d="M165,709.2c0-2.8,2.2-5,5-5s5,2.2,5,5c0,2.8-2.2,5-5,5S165,712.1,165,709.2z M166.7,723.6h6.6V772h-6.6V723.6
			z"/>
		<path class="st2" d="M182.7,747.8c0-14.7,10.8-25.5,26-25.5c15.3,0,26,10.8,26,25.5c0,14.7-10.8,25.5-26,25.5
			C193.4,773.3,182.7,762.5,182.7,747.8z M228.1,747.8c0-11.2-7.8-19.4-19.4-19.4c-11.6,0-19.4,8.2-19.4,19.4
			c0,11.2,7.8,19.4,19.4,19.4C220.3,767.2,228.1,759,228.1,747.8z"/>
		<path class="st2" d="M242.4,746.7c0-16.1,9.6-24.4,23.9-24.4c14.3,0,23.9,8.3,23.9,24.4V772h-6.6v-25.3c0-11.9-6.9-18.3-17.3-18.3
			s-17.3,6.4-17.3,18.3V772h-6.6V746.7z"/>
		<path class="st2" d="M297.8,748.1c0-15.1,10.8-25.8,26-25.8c15.3,0,25.9,10.5,25.9,25.8V772h-6.1V760
			c-3.4,8.6-11.5,13.2-20.9,13.2C309.3,773.3,297.8,763.6,297.8,748.1z M343.2,747.8c0-11.2-7.8-19.4-19.4-19.4
			c-11.6,0-19.4,8.2-19.4,19.4c0,11.2,7.8,19.4,19.4,19.4C335.4,767.2,343.2,759,343.2,747.8z"/>
		<path class="st2" d="M361.2,702.5h6.6V772h-6.6V702.5z"/>
		<path class="st2" d="M403.8,740c0-19.2,14.1-33.3,34.1-33.3c16.1,0,28.4,9.1,32.5,22.7H463c-3.8-9.8-13.1-16.3-25.1-16.3
			c-16,0-27,11.4-27,26.8c0,15.5,11.1,26.8,27,26.8c11.9,0,21.2-6.5,25.1-16.3h7.4c-4.1,13.6-16.4,22.7-32.5,22.7
			C417.9,773.3,403.8,759.2,403.8,740z"/>
		<path class="st2" d="M476.9,748.1c0-15.1,10.8-25.8,26-25.8c15.3,0,25.9,10.5,25.9,25.8V772h-6.1V760
			c-3.4,8.6-11.5,13.2-20.9,13.2C488.3,773.3,476.9,763.6,476.9,748.1z M522.3,747.8c0-11.2-7.8-19.4-19.4-19.4
			c-11.6,0-19.4,8.2-19.4,19.4c0,11.2,7.8,19.4,19.4,19.4C514.5,767.2,522.3,759,522.3,747.8z"/>
		<path class="st2" d="M538.4,743c0-13.9,8.3-20.7,20.4-20.7s20.3,6.8,20.3,20.8v0.6h-6.5V743c0-10.1-5.6-14.6-13.8-14.6
			c-8.3,0-13.8,4.5-13.8,14.6v29h-6.6V743z"/>
		<path class="st2" d="M583.6,747.8c0-14.7,10.8-25.5,26-25.5c15.3,0,25.8,10.8,25.8,25.5v2.2h-45.1c0.9,10.1,8.4,17.2,19.3,17.2
			c7.6,0,13.5-3.1,16.6-8.7h7.1c-3.7,8.9-12.5,14.8-23.8,14.8C594.3,773.3,583.6,762.5,583.6,747.8z M628.6,744.1
			c-1.6-9.8-9.2-15.7-19-15.7c-10.1,0-17.6,6.2-19.1,15.7H628.6z"/>
		<path class="st2" d="M670.9,708h27.7c15.5,0,22.3,8.6,22.3,20.4c0,11.7-7,20.5-22.3,20.5h-20.7V772h-7V708z M698.7,742.3
			c11.1,0,15.1-6.1,15.1-14c0-7.9-4-13.9-15.1-13.9h-20.8v27.9H698.7z"/>
		<path class="st2" d="M725.8,748.1c0-15.1,10.8-25.8,26-25.8c15.3,0,25.9,10.5,25.9,25.8V772h-6.1V760
			c-3.4,8.6-11.5,13.2-20.9,13.2C737.3,773.3,725.8,763.6,725.8,748.1z M771.2,747.8c0-11.2-7.8-19.4-19.4-19.4
			c-11.6,0-19.4,8.2-19.4,19.4c0,11.2,7.8,19.4,19.4,19.4C763.4,767.2,771.2,759,771.2,747.8z"/>
		<path class="st2" d="M787.4,743c0-13.9,8.3-20.7,20.4-20.7c12,0,20.3,6.8,20.3,20.8v0.6h-6.5V743c0-10.1-5.6-14.6-13.8-14.6
			c-8.3,0-13.8,4.5-13.8,14.6v29h-6.6V743z"/>
		<path class="st2" d="M834.5,754.2v-47.7h6.6v17.1h28.5v6H841v24.6c0,8.8,4.9,13,12.4,13c7.4,0,12.4-4.1,12.4-13v-1.1h6.4v1.1
			c0,12.7-7.6,19.1-18.8,19.1C842.2,773.3,834.5,766.9,834.5,754.2z"/>
		<path class="st2" d="M880.5,746.7c0-16.1,9.6-24.4,23.9-24.4s23.9,8.3,23.9,24.4V772h-6.6v-25.3c0-11.9-6.9-18.3-17.3-18.3
			c-10.5,0-17.3,6.4-17.3,18.3V772h-6.6V746.7z"/>
		<path class="st2" d="M935.9,747.8c0-14.7,10.8-25.5,26-25.5c15.3,0,25.8,10.8,25.8,25.5v2.2h-45.1c0.9,10.1,8.4,17.2,19.3,17.2
			c7.6,0,13.5-3.1,16.6-8.7h7.1c-3.7,8.9-12.5,14.8-23.8,14.8C946.7,773.3,935.9,762.5,935.9,747.8z M980.9,744.1
			c-1.6-9.8-9.2-15.7-19-15.7c-10.1,0-17.6,6.2-19.1,15.7H980.9z"/>
		<path class="st2" d="M995.4,743c0-13.9,8.3-20.7,20.4-20.7c12,0,20.3,6.8,20.3,20.8v0.6h-6.5V743c0-10.1-5.6-14.6-13.8-14.6
			c-8.3,0-13.8,4.5-13.8,14.6v29h-6.6V743z"/>
		<path class="st2" d="M1040.4,758.4h6.7c0.3,5.2,5,8.9,13.1,8.9c8.4,0,13.1-3.9,13.1-9.1c0-5.9-6.2-6.6-13.1-7.4
			c-8.7-1.1-18.6-2.4-18.6-13.1c0-9.1,7.1-15.3,18.5-15.3c11.4,0,18.3,6.3,18.5,14.5h-6.5c-0.3-4.8-4.7-8.5-12.1-8.5
			c-7.4,0-11.8,3.7-11.8,8.7c0,6,6.3,6.7,13.1,7.5c7.5,1,18.7,2.2,18.7,13.1c0,9.2-7.7,15.6-19.8,15.6
			C1048.3,773.3,1040.7,766.9,1040.4,758.4z"/>
	</g>
	<g>
		<path class="st3" d="M246.4,793.8h3.9v31.4h21.2v3.5h-25V793.8z"/>
		<path class="st3" d="M275.5,794.5c0-1.6,1.2-2.7,2.7-2.7c1.6,0,2.7,1.2,2.7,2.7s-1.2,2.7-2.7,2.7
			C276.7,797.3,275.5,796.1,275.5,794.5z M276.5,802.4h3.6v26.4h-3.6V802.4z"/>
		<path class="st3" d="M284.8,802.4h4l10.1,23l10.1-23h3.9l-11.9,26.4h-4.3L284.8,802.4z"/>
		<path class="st3" d="M316.6,794.5c0-1.6,1.2-2.7,2.7-2.7c1.6,0,2.7,1.2,2.7,2.7s-1.2,2.7-2.7,2.7
			C317.8,797.3,316.6,796.1,316.6,794.5z M317.6,802.4h3.6v26.4h-3.6V802.4z"/>
		<path class="st3" d="M327.4,815c0-8.8,5.2-13.3,13-13.3c7.8,0,13,4.5,13,13.3v13.8h-3.6V815c0-6.5-3.7-10-9.5-10
			c-5.7,0-9.5,3.5-9.5,10v13.8h-3.6V815z"/>
		<path class="st3" d="M358.7,832.3h3.6c1.4,3.7,5.1,5.3,9.6,5.3c6.1,0,10.4-3,10.4-10.9v-3.9c-2,4.1-6.1,6.4-11.1,6.4
			c-7.4,0-13.7-5.1-13.7-13.7c0-8,5.9-13.9,14.2-13.9c8.3,0,14.2,5.7,14.2,14.1v10.9c0,10.2-6.1,14.2-14,14.2
			C365.6,840.8,360.6,838.2,358.7,832.3z M382.4,815.6c0-6.1-4.3-10.6-10.6-10.6c-6.3,0-10.6,4.5-10.6,10.6
			c0,6.1,4.3,10.4,10.6,10.4C378.2,826,382.4,821.7,382.4,815.6z"/>
		<path class="st3" d="M405.7,817.1v-23.2h3.8v23.2c0,5.9,3.5,8.9,8.1,8.9c4.7,0,8.1-3.2,8.1-8.9v-23.2h3.9v23.2
			c0,5.8,3.4,8.9,8.1,8.9c4.7,0,8.1-3,8.1-8.9v-23.2h3.8v23.2c0,8.3-5.1,12.5-11.7,12.5c-4.8,0-8.6-2.3-10.3-6.5
			c-1.8,4.2-5.5,6.5-10.3,6.5C410.7,829.5,405.7,825.3,405.7,817.1z"/>
		<path class="st3" d="M455.2,794.5c0-1.6,1.2-2.7,2.7-2.7s2.7,1.2,2.7,2.7s-1.2,2.7-2.7,2.7S455.2,796.1,455.2,794.5z M456.1,802.4
			h3.6v26.4h-3.6V802.4z"/>
		<path class="st3" d="M465.9,819.1v-26h3.6v9.4h15.6v3.3h-15.6v13.4c0,4.8,2.7,7.1,6.8,7.1c4.1,0,6.8-2.2,6.8-7.1v-0.6h3.5v0.6
			c0,7-4.2,10.4-10.3,10.4C470.1,829.5,465.9,826,465.9,819.1z"/>
		<path class="st3" d="M491.9,790.9h3.6v16.7c1.9-3.8,5.4-5.8,10-5.8c7.1,0,12.5,4.3,12.5,13.3v13.8h-3.6V815c0-6.5-3.7-10-9.5-10
			c-5.7,0-9.5,3.6-9.5,10v13.8h-3.6V790.9z"/>
		<path class="st3" d="M522.2,815.6c0-8,5.9-13.9,14.2-13.9c8.3,0,14.2,5.9,14.2,13.9s-5.9,13.9-14.2,13.9
			C528.1,829.5,522.2,823.6,522.2,815.6z M547,815.6c0-6.1-4.3-10.6-10.6-10.6c-6.3,0-10.6,4.5-10.6,10.6c0,6.1,4.3,10.6,10.6,10.6
			C542.7,826.2,547,821.7,547,815.6z"/>
		<path class="st3" d="M554.8,816.2v-13.8h3.6v13.8c0,6.5,3.7,10,9.5,10c5.7,0,9.5-3.5,9.5-10v-13.8h3.6v13.8
			c0,8.8-5.2,13.3-13,13.3C560.1,829.5,554.8,825,554.8,816.2z"/>
		<path class="st3" d="M586.2,819.1v-26h3.6v9.4h15.6v3.3h-15.6v13.4c0,4.8,2.7,7.1,6.8,7.1c4.1,0,6.8-2.2,6.8-7.1v-0.6h3.5v0.6
			c0,7-4.2,10.4-10.3,10.4C590.4,829.5,586.2,826,586.2,819.1z"/>
		<path class="st3" d="M626.5,793.8h16.9c6.4,0,9.8,3.7,9.8,8.9c0,3.7-1.9,6.6-5,7.9v0.1c4.1,1.1,6.6,4.5,6.6,8.8
			c0,5.3-3.6,9.3-10.1,9.3h-18.3V793.8z M643.1,809.2c4,0,6.3-2.5,6.3-5.9c0-3.5-1.9-5.9-6.4-5.9h-12.6v11.9H643.1z M644.3,825.3
			c4.5,0,6.6-2.6,6.6-6.3c0-3.6-2.5-6.3-6.5-6.3h-14.1v12.5H644.3z"/>
		<path class="st3" d="M657.8,815.8c0-8.2,5.9-14.1,14.2-14.1c8.3,0,14.2,5.7,14.2,14.1v13h-3.3v-6.5c-1.9,4.7-6.3,7.2-11.4,7.2
			C664,829.5,657.8,824.2,657.8,815.8z M682.6,815.6c0-6.1-4.3-10.6-10.6-10.6c-6.3,0-10.6,4.5-10.6,10.6c0,6.1,4.3,10.6,10.6,10.6
			C678.3,826.2,682.6,821.7,682.6,815.6z"/>
		<path class="st3" d="M691.4,813c0-7.6,4.5-11.3,11.1-11.3c6.6,0,11.1,3.7,11.1,11.3v0.3h-3.5V813c0-5.5-3.1-8-7.5-8
			c-4.5,0-7.5,2.5-7.5,8v15.8h-3.6V813z"/>
		<path class="st3" d="M717.1,813c0-7.6,4.5-11.3,11.1-11.3c6.6,0,11.1,3.7,11.1,11.3v0.3h-3.5V813c0-5.5-3.1-8-7.5-8
			c-4.5,0-7.5,2.5-7.5,8v15.8h-3.6V813z"/>
		<path class="st3" d="M742.9,794.5c0-1.6,1.2-2.7,2.7-2.7s2.7,1.2,2.7,2.7s-1.2,2.7-2.7,2.7S742.9,796.1,742.9,794.5z M743.9,802.4
			h3.6v26.4h-3.6V802.4z"/>
		<path class="st3" d="M752.6,815.6c0-8,5.9-13.9,14.2-13.9c8.3,0,14.1,5.9,14.1,13.9v1.2h-24.7c0.5,5.5,4.6,9.4,10.5,9.4
			c4.2,0,7.4-1.7,9.1-4.8h3.9c-2,4.9-6.8,8.1-13,8.1C758.5,829.5,752.6,823.6,752.6,815.6z M777.2,813.6c-0.9-5.3-5-8.6-10.4-8.6
			c-5.5,0-9.6,3.4-10.4,8.6H777.2z"/>
		<path class="st3" d="M785.1,813c0-7.6,4.5-11.3,11.1-11.3c6.6,0,11.1,3.7,11.1,11.3v0.3h-3.5V813c0-5.5-3.1-8-7.5-8
			c-4.5,0-7.5,2.5-7.5,8v15.8h-3.6V813z"/>
		<path class="st3" d="M809.7,821.4h3.6c0.2,2.8,2.7,4.9,7.2,4.9c4.6,0,7.2-2.1,7.2-5c0-3.2-3.4-3.6-7.2-4.1
			c-4.8-0.6-10.2-1.3-10.2-7.2c0-5,3.9-8.3,10.1-8.3s10,3.4,10.1,7.9H827c-0.2-2.6-2.6-4.7-6.6-4.7c-4.1,0-6.5,2-6.5,4.8
			c0,3.3,3.4,3.6,7.2,4.1c4.1,0.5,10.2,1.2,10.2,7.2c0,5-4.2,8.5-10.8,8.5C814,829.5,809.9,826,809.7,821.4z"/>
	</g>
</g>
</svg>
