<svg width="17" height="17" viewBox="0 0 17 17" fill="none" xmlns="http://www.w3.org/2000/svg">
<g clip-path="url(#clip0_184_110)">
<path d="M15.5528 1.75454H13.3122V0.733511C13.3123 0.598114 13.2579 0.468227 13.161 0.372423C13.0641 0.276619 12.9326 0.222747 12.7955 0.222656C12.6583 0.222566 12.5268 0.276266 12.4297 0.371942C12.3327 0.467618 12.2781 0.597433 12.278 0.73283V1.75454H9.1756V0.733511C9.17565 0.666469 9.16232 0.600075 9.13638 0.53812C9.11043 0.476164 9.07238 0.41986 9.0244 0.372423C8.97642 0.324986 8.91944 0.287344 8.85673 0.261647C8.79401 0.23595 8.72678 0.222701 8.65888 0.222656C8.52174 0.222566 8.39018 0.276266 8.29315 0.371942C8.19611 0.467618 8.14155 0.597433 8.14146 0.73283V1.75454H5.03902V0.733511C5.03906 0.666469 5.02573 0.600075 4.99979 0.53812C4.97385 0.476164 4.9358 0.41986 4.88782 0.372423C4.83983 0.324986 4.78286 0.287344 4.72014 0.261647C4.65742 0.23595 4.59019 0.222701 4.52229 0.222656C4.38515 0.222566 4.2536 0.276266 4.15656 0.371942C4.05953 0.467618 4.00496 0.597433 4.00487 0.73283V1.75454H1.76422C1.39865 1.75454 1.04803 1.89788 0.789464 2.15303C0.530897 2.40819 0.385544 2.75429 0.385361 3.11523V15.1974C0.385361 15.5585 0.530633 15.9047 0.78922 16.16C1.04781 16.4153 1.39853 16.5588 1.76422 16.5588H15.5528C15.9185 16.5588 16.2693 16.4153 16.5278 16.16C16.7864 15.9047 16.9317 15.5585 16.9317 15.1974V3.11523C16.9315 2.75429 16.7862 2.40819 16.5276 2.15303C16.269 1.89788 15.9184 1.75454 15.5528 1.75454ZM15.8976 15.1981C15.8976 15.2882 15.8613 15.3747 15.7968 15.4385C15.7323 15.5023 15.6448 15.5382 15.5535 15.5384H1.76422C1.6728 15.5384 1.58512 15.5026 1.52047 15.4387C1.45583 15.3749 1.41951 15.2883 1.41951 15.1981V3.11591C1.41969 3.02576 1.45609 2.93937 1.52072 2.87569C1.58534 2.81201 1.67292 2.77625 1.76422 2.77625H4.00487V3.79728C4.00478 3.93267 4.05917 4.06256 4.15608 4.15836C4.25298 4.25417 4.38446 4.30804 4.5216 4.30813C4.65874 4.30822 4.79029 4.25452 4.88733 4.15884C4.98436 4.06317 5.03893 3.93335 5.03902 3.79796V2.77625H8.14146V3.79728C8.14137 3.93267 8.19576 4.06256 8.29266 4.15836C8.38957 4.25417 8.52105 4.30804 8.65819 4.30813C8.79532 4.30822 8.92688 4.25452 9.02391 4.15884C9.12095 4.06317 9.17551 3.93335 9.1756 3.79796V2.77625H12.278V3.79728C12.278 3.93267 12.3323 4.06256 12.4292 4.15836C12.5262 4.25417 12.6576 4.30804 12.7948 4.30813C12.9319 4.30822 13.0635 4.25452 13.1605 4.15884C13.2575 4.06317 13.3121 3.93335 13.3122 3.79796V2.77625H15.5528C15.644 2.77643 15.7314 2.81227 15.7959 2.87593C15.8604 2.93959 15.8967 3.02588 15.8969 3.11591L15.8976 15.1981Z" fill="black"/>
<path d="M4.00487 6.34961H6.07317V7.88115H4.00487V6.34961Z" fill="#0095D5"/>
<path d="M4.00487 8.90234H6.07317V10.4339H4.00487V8.90234Z" fill="#0095D5"/>
<path d="M4.00487 11.4551H6.07317V12.9866H4.00487V11.4551Z" fill="#0095D5"/>
<path d="M7.62438 11.4551H9.69268V12.9866H7.62438V11.4551Z" fill="#0095D5"/>
<path d="M7.62438 8.90234H9.69268V10.4339H7.62438V8.90234Z" fill="#0095D5"/>
<path d="M7.62438 6.34961H9.69268V7.88115H7.62438V6.34961Z" fill="#0095D5"/>
<path d="M11.2439 11.4551H13.3122V12.9866H11.2439V11.4551Z" fill="#0095D5"/>
<path d="M11.2439 8.90234H13.3122V10.4339H11.2439V8.90234Z" fill="#0095D5"/>
<path d="M11.2439 6.34961H13.3122V7.88115H11.2439V6.34961Z" fill="#0095D5"/>
</g>
<defs>
<clipPath id="clip0_184_110">
<rect width="16.5463" height="16.3364" fill="white" transform="translate(0.385361 0.223633)"/>
</clipPath>
</defs>
</svg>
