<svg xmlns="http://www.w3.org/2000/svg" width="15" height="15" fill="none" style=""><rect id="backgroundrect" width="100%" height="100%" x="0" y="0" fill="none" stroke="none"/>


<g class="currentLayer" style=""><title>Layer 1</title><path d="M6.506862815856934,14.86616011581421 C6.022862815856934,14.86616011581421 5.592662815856933,14.706860115814209 5.269962815856934,14.388360115814208 L0.48398281585693326,9.662960115814208 C-0.16132718414306613,9.02586011581421 -0.16132718414306613,7.910960115814209 0.48398281585693326,7.273760115814209 L6.883262815856934,0.955680115814209 C7.421062815856933,0.4247401158142088 8.496562815856933,1.1581420888973071e-7 9.303162815856934,1.1581420888973071e-7 H13.390162815856932 C14.358062815856933,1.1581420888973071e-7 15.110962815856933,0.743310115814209 15.110962815856933,1.6989901158142082 V5.734060115814209 C15.110962815856933,6.5304601158142095 14.680762815856934,7.5392601158142085 14.142962815856933,8.123260115814208 L7.7436628158569345,14.388360115814208 C7.421062815856933,14.706860115814209 6.990862815856934,14.86616011581421 6.506862815856934,14.86616011581421 zM9.303162815856934,1.008770115814209 C8.765462815856933,1.008770115814209 8.012562815856933,1.3273301158142088 7.689862815856934,1.6989901158142082 L1.2906128158569334,8.017060115814209 C1.021732815856934,8.28256011581421 1.021732815856934,8.654260115814209 1.2906128158569334,8.919660115814208 L6.076662815856933,13.64506011581421 C6.345562815856933,13.85736011581421 6.721962815856934,13.85736011581421 6.990862815856934,13.64506011581421 L13.390162815856932,7.32686011581421 C13.766562815856933,6.955260115814209 14.089162815856934,6.211960115814209 14.089162815856934,5.734060115814209 V1.6989901158142082 C14.089162815856934,1.3273301158142088 13.820362815856935,1.0618701158142088 13.443862815856935,1.0618701158142088 H9.303162815856934 V1.008770115814209 z" fill="black" id="svg_1" class=""/><path d="M10.808862815856934,6.31776011581421 C9.625862815856934,6.31776011581421 8.657862815856934,5.362060115814209 8.657862815856934,4.194060115814208 C8.657862815856934,3.02599011581421 9.625862815856934,2.070310115814209 10.808862815856934,2.070310115814209 C11.991962815856933,2.070310115814209 12.959962815856933,3.02599011581421 12.959962815856933,4.194060115814208 C12.959962815856933,5.362060115814209 11.991962815856933,6.31776011581421 10.808862815856934,6.31776011581421 zM10.808862815856934,3.1321801158142097 C10.217362815856934,3.1321801158142097 9.733362815856934,3.6100601158142087 9.733362815856934,4.194060115814208 C9.733362815856934,4.77806011581421 10.217362815856934,5.25596011581421 10.808862815856934,5.25596011581421 C11.400462815856933,5.25596011581421 11.884362815856935,4.77806011581421 11.884362815856935,4.194060115814208 C11.884362815856935,3.6100601158142087 11.400462815856933,3.1321801158142097 10.808862815856934,3.1321801158142097 z" fill="#0095D5" id="svg_2" class=""/></g></svg>